<svg viewBox="8 -8 32 32">
	<path d="M33.6,15.4l-4.1-4.1c1-1.4,1.5-3,1.5-4.8c0-1.1-0.2-2.2-0.7-3.3c-0.4-1-1-1.9-1.8-2.7s-1.7-1.4-2.7-1.8
		c-1-0.4-2.1-0.7-3.3-0.7c-1.1,0-2.2,0.2-3.3,0.7c-1,0.4-1.9,1-2.7,1.8c-0.8,0.8-1.4,1.7-1.8,2.7c-0.4,1-0.7,2.1-0.7,3.3
		c0,1.1,0.2,2.2,0.7,3.3c0.4,1,1,1.9,1.8,2.7c0.8,0.8,1.7,1.4,2.7,1.8c1,0.4,2.1,0.7,3.3,0.7c1.8,0,3.4-0.5,4.8-1.5l4.1,4.1
		c0.3,0.3,0.6,0.5,1.1,0.5c0.4,0,0.8-0.2,1.1-0.5c0.3-0.3,0.5-0.7,0.5-1.1C34,16,33.9,15.7,33.6,15.4z M26.3,10.3
		c-1.1,1.1-2.3,1.6-3.8,1.6c-1.5,0-2.8-0.5-3.8-1.6c-1.1-1.1-1.6-2.3-1.6-3.8c0-1.5,0.5-2.8,1.6-3.8c1.1-1.1,2.3-1.6,3.8-1.6
		c1.5,0,2.8,0.5,3.8,1.6c1.1,1.1,1.6,2.3,1.6,3.8C27.8,7.9,27.3,9.2,26.3,10.3z"/>
</svg>
